<mxfile host="app.diagrams.net" modified="2021-11-27T12:23:44.431Z" agent="5.0 (Windows NT 10.0; Win64; x64) AppleWebKit/537.36 (KHTML, like Gecko) Chrome/96.0.4664.45 Safari/537.36" etag="QfhqrcSMmG3CZ830EGx6" version="15.4.0" type="github">
  <diagram id="wgWVWkLuQf_HbRL2IC5x" name="Page-1">
    <mxGraphModel dx="651" dy="397" grid="1" gridSize="10" guides="1" tooltips="1" connect="1" arrows="1" fold="1" page="1" pageScale="1" pageWidth="827" pageHeight="1169" math="0" shadow="0">
      <root>
        <mxCell id="0" />
        <mxCell id="1" parent="0" />
        <mxCell id="NwJ2-ESEY010zBiN_XA0-1" value="" style="rounded=0;whiteSpace=wrap;html=1;" vertex="1" parent="1">
          <mxGeometry x="70" y="40" width="500" height="1050" as="geometry" />
        </mxCell>
        <mxCell id="NwJ2-ESEY010zBiN_XA0-2" value="" style="rounded=0;whiteSpace=wrap;html=1;" vertex="1" parent="1">
          <mxGeometry x="80" y="50" width="480" height="220" as="geometry" />
        </mxCell>
        <mxCell id="NwJ2-ESEY010zBiN_XA0-3" value="" style="rounded=0;whiteSpace=wrap;html=1;" vertex="1" parent="1">
          <mxGeometry x="260" y="123" width="120" height="60" as="geometry" />
        </mxCell>
        <mxCell id="NwJ2-ESEY010zBiN_XA0-4" value="" style="rounded=0;whiteSpace=wrap;html=1;" vertex="1" parent="1">
          <mxGeometry x="137" y="193" width="370" height="30" as="geometry" />
        </mxCell>
        <mxCell id="NwJ2-ESEY010zBiN_XA0-5" value="" style="rounded=0;whiteSpace=wrap;html=1;" vertex="1" parent="1">
          <mxGeometry x="137" y="230" width="370" height="30" as="geometry" />
        </mxCell>
        <mxCell id="NwJ2-ESEY010zBiN_XA0-6" value="" style="rounded=0;whiteSpace=wrap;html=1;" vertex="1" parent="1">
          <mxGeometry x="135" y="70" width="370" height="30" as="geometry" />
        </mxCell>
        <mxCell id="NwJ2-ESEY010zBiN_XA0-7" value="" style="rounded=0;whiteSpace=wrap;html=1;" vertex="1" parent="1">
          <mxGeometry x="80" y="1020" width="480" height="60" as="geometry" />
        </mxCell>
        <mxCell id="NwJ2-ESEY010zBiN_XA0-8" value="" style="rounded=0;whiteSpace=wrap;html=1;" vertex="1" parent="1">
          <mxGeometry x="80" y="290" width="480" height="220" as="geometry" />
        </mxCell>
        <mxCell id="NwJ2-ESEY010zBiN_XA0-9" value="" style="whiteSpace=wrap;html=1;aspect=fixed;" vertex="1" parent="1">
          <mxGeometry x="90" y="300" width="200" height="200" as="geometry" />
        </mxCell>
        <mxCell id="NwJ2-ESEY010zBiN_XA0-10" value="&lt;h1&gt;Heading&lt;/h1&gt;&lt;p&gt;Lorem ipsum dolor sit amet, consectetur adipisicing elit, sed do eiusmod tempor incididunt ut labore et dolore magna aliqua.&lt;/p&gt;" style="text;html=1;strokeColor=none;fillColor=none;spacing=5;spacingTop=-20;whiteSpace=wrap;overflow=hidden;rounded=0;" vertex="1" parent="1">
          <mxGeometry x="300" y="304" width="250" height="196" as="geometry" />
        </mxCell>
        <mxCell id="NwJ2-ESEY010zBiN_XA0-11" value="" style="rounded=1;whiteSpace=wrap;html=1;" vertex="1" parent="1">
          <mxGeometry x="365" y="420" width="120" height="60" as="geometry" />
        </mxCell>
        <mxCell id="NwJ2-ESEY010zBiN_XA0-12" value="" style="rounded=0;whiteSpace=wrap;html=1;" vertex="1" parent="1">
          <mxGeometry x="80" y="535" width="480" height="475" as="geometry" />
        </mxCell>
        <mxCell id="NwJ2-ESEY010zBiN_XA0-13" value="" style="rounded=0;whiteSpace=wrap;html=1;" vertex="1" parent="1">
          <mxGeometry x="100" y="790" width="440" height="205" as="geometry" />
        </mxCell>
        <mxCell id="NwJ2-ESEY010zBiN_XA0-14" value="" style="rounded=0;whiteSpace=wrap;html=1;" vertex="1" parent="1">
          <mxGeometry x="100" y="555" width="440" height="205" as="geometry" />
        </mxCell>
        <mxCell id="NwJ2-ESEY010zBiN_XA0-18" value="" style="rounded=1;whiteSpace=wrap;html=1;" vertex="1" parent="1">
          <mxGeometry x="355" y="945" width="70" height="40" as="geometry" />
        </mxCell>
        <mxCell id="NwJ2-ESEY010zBiN_XA0-19" value="" style="rounded=1;whiteSpace=wrap;html=1;" vertex="1" parent="1">
          <mxGeometry x="445" y="945" width="70" height="40" as="geometry" />
        </mxCell>
        <mxCell id="NwJ2-ESEY010zBiN_XA0-20" value="" style="rounded=1;whiteSpace=wrap;html=1;" vertex="1" parent="1">
          <mxGeometry x="445" y="710" width="70" height="40" as="geometry" />
        </mxCell>
        <mxCell id="NwJ2-ESEY010zBiN_XA0-21" value="" style="rounded=1;whiteSpace=wrap;html=1;" vertex="1" parent="1">
          <mxGeometry x="355" y="710" width="70" height="40" as="geometry" />
        </mxCell>
        <mxCell id="NwJ2-ESEY010zBiN_XA0-26" value="Header" style="text;html=1;strokeColor=none;fillColor=none;align=center;verticalAlign=middle;whiteSpace=wrap;rounded=0;" vertex="1" parent="1">
          <mxGeometry x="640" y="40" width="60" height="30" as="geometry" />
        </mxCell>
        <mxCell id="NwJ2-ESEY010zBiN_XA0-27" value="Navbar" style="text;html=1;strokeColor=none;fillColor=none;align=center;verticalAlign=middle;whiteSpace=wrap;rounded=0;" vertex="1" parent="1">
          <mxGeometry x="640" y="80" width="60" height="30" as="geometry" />
        </mxCell>
        <mxCell id="NwJ2-ESEY010zBiN_XA0-28" value="logo" style="text;html=1;strokeColor=none;fillColor=none;align=center;verticalAlign=middle;whiteSpace=wrap;rounded=0;" vertex="1" parent="1">
          <mxGeometry x="648" y="123" width="60" height="30" as="geometry" />
        </mxCell>
        <mxCell id="NwJ2-ESEY010zBiN_XA0-29" value="h1" style="text;html=1;strokeColor=none;fillColor=none;align=center;verticalAlign=middle;whiteSpace=wrap;rounded=0;" vertex="1" parent="1">
          <mxGeometry x="640" y="163" width="60" height="30" as="geometry" />
        </mxCell>
        <mxCell id="NwJ2-ESEY010zBiN_XA0-30" value="h2" style="text;html=1;strokeColor=none;fillColor=none;align=center;verticalAlign=middle;whiteSpace=wrap;rounded=0;" vertex="1" parent="1">
          <mxGeometry x="639" y="200" width="60" height="30" as="geometry" />
        </mxCell>
        <mxCell id="NwJ2-ESEY010zBiN_XA0-31" value="" style="endArrow=classic;html=1;rounded=0;edgeStyle=orthogonalEdgeStyle;entryX=0;entryY=0.5;entryDx=0;entryDy=0;exitX=1.007;exitY=0.015;exitDx=0;exitDy=0;exitPerimeter=0;" edge="1" parent="1" source="NwJ2-ESEY010zBiN_XA0-1" target="NwJ2-ESEY010zBiN_XA0-26">
          <mxGeometry width="50" height="50" relative="1" as="geometry">
            <mxPoint x="550" y="90" as="sourcePoint" />
            <mxPoint x="600" y="40" as="targetPoint" />
          </mxGeometry>
        </mxCell>
        <mxCell id="NwJ2-ESEY010zBiN_XA0-32" value="" style="endArrow=classic;html=1;rounded=0;edgeStyle=orthogonalEdgeStyle;" edge="1" parent="1" source="NwJ2-ESEY010zBiN_XA0-6" target="NwJ2-ESEY010zBiN_XA0-27">
          <mxGeometry width="50" height="50" relative="1" as="geometry">
            <mxPoint x="583.5" y="65.75" as="sourcePoint" />
            <mxPoint x="650" y="65" as="targetPoint" />
          </mxGeometry>
        </mxCell>
        <mxCell id="NwJ2-ESEY010zBiN_XA0-33" value="" style="endArrow=classic;html=1;rounded=0;edgeStyle=orthogonalEdgeStyle;entryX=0;entryY=0.5;entryDx=0;entryDy=0;" edge="1" parent="1" target="NwJ2-ESEY010zBiN_XA0-28">
          <mxGeometry width="50" height="50" relative="1" as="geometry">
            <mxPoint x="380" y="143" as="sourcePoint" />
            <mxPoint x="515" y="153" as="targetPoint" />
          </mxGeometry>
        </mxCell>
        <mxCell id="NwJ2-ESEY010zBiN_XA0-34" value="" style="endArrow=classic;html=1;rounded=0;edgeStyle=orthogonalEdgeStyle;exitX=1;exitY=0.5;exitDx=0;exitDy=0;" edge="1" parent="1" source="NwJ2-ESEY010zBiN_XA0-4" target="NwJ2-ESEY010zBiN_XA0-29">
          <mxGeometry width="50" height="50" relative="1" as="geometry">
            <mxPoint x="390" y="153" as="sourcePoint" />
            <mxPoint x="650" y="193" as="targetPoint" />
            <Array as="points">
              <mxPoint x="507" y="200" />
              <mxPoint x="600" y="200" />
              <mxPoint x="600" y="178" />
            </Array>
          </mxGeometry>
        </mxCell>
        <mxCell id="NwJ2-ESEY010zBiN_XA0-35" value="" style="endArrow=classic;html=1;rounded=0;edgeStyle=orthogonalEdgeStyle;exitX=1;exitY=0.5;exitDx=0;exitDy=0;" edge="1" parent="1">
          <mxGeometry width="50" height="50" relative="1" as="geometry">
            <mxPoint x="507" y="250" as="sourcePoint" />
            <mxPoint x="640" y="220" as="targetPoint" />
            <Array as="points">
              <mxPoint x="507" y="242" />
              <mxPoint x="600" y="242" />
              <mxPoint x="600" y="220" />
            </Array>
          </mxGeometry>
        </mxCell>
        <mxCell id="NwJ2-ESEY010zBiN_XA0-36" value="div qui suis-je" style="text;html=1;strokeColor=none;fillColor=none;align=center;verticalAlign=middle;whiteSpace=wrap;rounded=0;" vertex="1" parent="1">
          <mxGeometry x="630" y="290" width="60" height="30" as="geometry" />
        </mxCell>
        <mxCell id="NwJ2-ESEY010zBiN_XA0-37" value="" style="endArrow=classic;html=1;rounded=0;edgeStyle=orthogonalEdgeStyle;" edge="1" parent="1">
          <mxGeometry width="50" height="50" relative="1" as="geometry">
            <mxPoint x="560" y="330" as="sourcePoint" />
            <mxPoint x="638" y="300" as="targetPoint" />
            <Array as="points">
              <mxPoint x="560" y="330" />
              <mxPoint x="560" y="322" />
              <mxPoint x="598" y="322" />
              <mxPoint x="598" y="300" />
            </Array>
          </mxGeometry>
        </mxCell>
        <mxCell id="NwJ2-ESEY010zBiN_XA0-38" value="Photo" style="text;html=1;strokeColor=none;fillColor=none;align=center;verticalAlign=middle;whiteSpace=wrap;rounded=0;" vertex="1" parent="1">
          <mxGeometry x="639" y="340" width="60" height="30" as="geometry" />
        </mxCell>
        <mxCell id="NwJ2-ESEY010zBiN_XA0-39" value="Z" style="endArrow=classic;html=1;rounded=0;edgeStyle=orthogonalEdgeStyle;" edge="1" parent="1" source="NwJ2-ESEY010zBiN_XA0-9">
          <mxGeometry width="50" height="50" relative="1" as="geometry">
            <mxPoint x="560" y="390" as="sourcePoint" />
            <mxPoint x="638" y="360" as="targetPoint" />
            <Array as="points">
              <mxPoint x="620" y="382" />
              <mxPoint x="620" y="360" />
            </Array>
          </mxGeometry>
        </mxCell>
        <mxCell id="NwJ2-ESEY010zBiN_XA0-40" value="Texte" style="text;html=1;strokeColor=none;fillColor=none;align=center;verticalAlign=middle;whiteSpace=wrap;rounded=0;" vertex="1" parent="1">
          <mxGeometry x="639" y="380" width="60" height="30" as="geometry" />
        </mxCell>
        <mxCell id="NwJ2-ESEY010zBiN_XA0-41" value="Z" style="endArrow=classic;html=1;rounded=0;edgeStyle=orthogonalEdgeStyle;" edge="1" parent="1">
          <mxGeometry width="50" height="50" relative="1" as="geometry">
            <mxPoint x="380" y="390" as="sourcePoint" />
            <mxPoint x="648" y="391" as="targetPoint" />
            <Array as="points">
              <mxPoint x="630" y="413" />
              <mxPoint x="630" y="391" />
            </Array>
          </mxGeometry>
        </mxCell>
        <mxCell id="NwJ2-ESEY010zBiN_XA0-42" value="Z" style="endArrow=classic;html=1;rounded=0;edgeStyle=orthogonalEdgeStyle;" edge="1" parent="1">
          <mxGeometry width="50" height="50" relative="1" as="geometry">
            <mxPoint x="371" y="447.75" as="sourcePoint" />
            <mxPoint x="639" y="448.75" as="targetPoint" />
            <Array as="points">
              <mxPoint x="621" y="470.75" />
              <mxPoint x="621" y="448.75" />
            </Array>
          </mxGeometry>
        </mxCell>
        <mxCell id="NwJ2-ESEY010zBiN_XA0-43" value="Bouton en savoir plus" style="text;html=1;strokeColor=none;fillColor=none;align=center;verticalAlign=middle;whiteSpace=wrap;rounded=0;" vertex="1" parent="1">
          <mxGeometry x="639" y="429.25" width="60" height="30" as="geometry" />
        </mxCell>
        <mxCell id="NwJ2-ESEY010zBiN_XA0-44" value="Photo" style="text;html=1;strokeColor=none;fillColor=none;align=center;verticalAlign=middle;whiteSpace=wrap;rounded=0;" vertex="1" parent="1">
          <mxGeometry x="609" y="560" width="60" height="30" as="geometry" />
        </mxCell>
        <mxCell id="NwJ2-ESEY010zBiN_XA0-45" value="" style="endArrow=classic;html=1;rounded=0;edgeStyle=orthogonalEdgeStyle;" edge="1" parent="1">
          <mxGeometry width="50" height="50" relative="1" as="geometry">
            <mxPoint x="530" y="600" as="sourcePoint" />
            <mxPoint x="608" y="570" as="targetPoint" />
            <Array as="points">
              <mxPoint x="530" y="600" />
              <mxPoint x="530" y="592" />
              <mxPoint x="568" y="592" />
              <mxPoint x="568" y="570" />
            </Array>
          </mxGeometry>
        </mxCell>
        <mxCell id="NwJ2-ESEY010zBiN_XA0-46" value="div mes projets" style="text;html=1;strokeColor=none;fillColor=none;align=center;verticalAlign=middle;whiteSpace=wrap;rounded=0;" vertex="1" parent="1">
          <mxGeometry x="609" y="520" width="60" height="30" as="geometry" />
        </mxCell>
        <mxCell id="NwJ2-ESEY010zBiN_XA0-47" value="" style="endArrow=classic;html=1;rounded=0;edgeStyle=orthogonalEdgeStyle;" edge="1" parent="1" source="NwJ2-ESEY010zBiN_XA0-12">
          <mxGeometry width="50" height="50" relative="1" as="geometry">
            <mxPoint x="539" y="560" as="sourcePoint" />
            <mxPoint x="617" y="530" as="targetPoint" />
            <Array as="points">
              <mxPoint x="577" y="540" />
              <mxPoint x="577" y="530" />
            </Array>
          </mxGeometry>
        </mxCell>
        <mxCell id="NwJ2-ESEY010zBiN_XA0-48" value="Bouton en savoir plus" style="text;html=1;strokeColor=none;fillColor=none;align=center;verticalAlign=middle;whiteSpace=wrap;rounded=0;" vertex="1" parent="1">
          <mxGeometry x="618" y="610" width="60" height="30" as="geometry" />
        </mxCell>
        <mxCell id="NwJ2-ESEY010zBiN_XA0-49" value="Z" style="endArrow=classic;html=1;rounded=0;edgeStyle=orthogonalEdgeStyle;" edge="1" parent="1" source="NwJ2-ESEY010zBiN_XA0-21">
          <mxGeometry width="50" height="50" relative="1" as="geometry">
            <mxPoint x="349.9999999999999" y="628.5" as="sourcePoint" />
            <mxPoint x="618" y="629.5" as="targetPoint" />
            <Array as="points">
              <mxPoint x="390" y="652" />
              <mxPoint x="600" y="652" />
              <mxPoint x="600" y="630" />
            </Array>
          </mxGeometry>
        </mxCell>
        <mxCell id="NwJ2-ESEY010zBiN_XA0-50" value="Bouton voir la gh page" style="text;html=1;strokeColor=none;fillColor=none;align=center;verticalAlign=middle;whiteSpace=wrap;rounded=0;" vertex="1" parent="1">
          <mxGeometry x="618" y="670" width="60" height="30" as="geometry" />
        </mxCell>
        <mxCell id="NwJ2-ESEY010zBiN_XA0-51" value="Z" style="endArrow=classic;html=1;rounded=0;edgeStyle=orthogonalEdgeStyle;" edge="1" parent="1" source="NwJ2-ESEY010zBiN_XA0-20">
          <mxGeometry width="50" height="50" relative="1" as="geometry">
            <mxPoint x="390" y="770" as="sourcePoint" />
            <mxPoint x="618" y="689.5" as="targetPoint" />
            <Array as="points">
              <mxPoint x="480" y="712" />
              <mxPoint x="600" y="712" />
              <mxPoint x="600" y="690" />
            </Array>
          </mxGeometry>
        </mxCell>
        <mxCell id="NwJ2-ESEY010zBiN_XA0-52" value="Footer" style="text;html=1;strokeColor=none;fillColor=none;align=center;verticalAlign=middle;whiteSpace=wrap;rounded=0;" vertex="1" parent="1">
          <mxGeometry x="609" y="1010" width="60" height="30" as="geometry" />
        </mxCell>
        <mxCell id="NwJ2-ESEY010zBiN_XA0-53" value="Z" style="endArrow=classic;html=1;rounded=0;edgeStyle=orthogonalEdgeStyle;" edge="1" parent="1">
          <mxGeometry width="50" height="50" relative="1" as="geometry">
            <mxPoint x="506" y="1052" as="sourcePoint" />
            <mxPoint x="609" y="1029.5" as="targetPoint" />
            <Array as="points">
              <mxPoint x="471" y="1052" />
              <mxPoint x="591" y="1052" />
              <mxPoint x="591" y="1030" />
            </Array>
          </mxGeometry>
        </mxCell>
      </root>
    </mxGraphModel>
  </diagram>
</mxfile>
